<svg width="143" height="161" viewBox="0 0 143 161" fill="none" xmlns="http://www.w3.org/2000/svg">
<g clip-path="url(#clip0_1069_2208)">
<path d="M30.2471 13.1586C27.0345 16.3727 24.7565 19.6258 20.0836 20.6583C11.3511 22.6062 6.07467 31.0994 7.24289 40.0503C8.31376 48.2221 15.4496 54.2511 24.4742 54.2705C59.2287 54.329 93.9833 54.29 128.738 54.2998C138.824 54.2998 142.961 58.41 142.971 68.4031C142.971 73.0295 143.019 77.656 142.951 82.2727C142.844 89.2659 138.483 93.6683 131.503 93.6975C114.972 93.756 98.4517 93.678 81.9214 93.7462C74.9705 93.7754 69.3338 98.2947 67.8249 104.752C66.2867 111.336 69.2754 118.164 75.4086 120.881C77.8618 121.972 80.7921 122.401 83.518 122.42C98.9482 122.566 114.379 122.479 129.818 122.498C138.979 122.508 142.961 126.462 142.971 135.559C142.98 140.186 143.058 144.812 142.941 149.429C142.776 156.198 138.103 160.922 131.366 160.932C95.6383 160.981 59.9102 161.039 24.1918 160.912C11.6627 160.873 0.253037 149.439 0.175156 136.582C-0.0292831 103.116 -0.0390182 69.6498 0.14595 36.1836C0.214096 23.7555 8.90761 14.6293 21.2518 13.1391C23.6564 12.8469 26.0999 12.8956 28.524 12.8274C28.9426 12.8177 29.3709 12.993 30.2471 13.1586Z" fill="#1D3A70"/>
<path d="M43.0197 40.9074C43.0197 38.8134 42.971 37.1284 43.0294 35.4434C43.1852 31.1676 45.619 28.4891 49.8343 28.4696C68.4285 28.3917 87.0227 28.3917 105.617 28.4599C110.056 28.4794 112.422 31.0897 112.558 35.6284C112.607 37.1966 112.568 38.7549 112.568 40.9074C116.199 40.9074 119.538 40.9561 122.887 40.888C125.175 40.8393 127.287 41.297 127.394 43.9463C127.511 46.8001 125.389 47.4526 122.916 47.4526C90.2255 47.4429 57.5348 47.4721 24.8441 47.4234C19.334 47.4137 15.3231 43.8489 14.7877 38.8134C14.2912 34.1869 17.3675 30.1741 22.3714 28.5865C23.6759 28.1774 24.9707 27.3495 25.9539 26.395C33.3137 19.1388 40.5859 11.7852 47.9067 4.49982C53.9328 -1.49994 60.358 -1.49994 66.3841 4.49008C71.9623 10.0321 77.5017 15.613 83.7711 21.8952C79.6239 21.8952 76.4016 21.8952 73.189 21.8952C65.654 21.8952 58.1189 21.8952 50.5839 21.8952C41.1408 21.8952 37.3927 25.2068 36.1758 35.044C32.642 35.044 29.0302 35.0733 25.4282 35.0343C23.2573 35.0148 21.1058 35.57 21.5341 38.0439C21.7288 39.1835 23.9582 40.7126 25.3406 40.7808C31.0357 41.0925 36.7405 40.9074 43.0197 40.9074Z" fill="#FF6584"/>
<path d="M117.971 26.2003C121.33 26.2003 124.455 26.2197 127.589 26.1905C129.77 26.171 131.571 25.4503 131.503 22.9277C131.435 20.4245 129.643 19.8304 127.433 19.8401C117.358 19.8693 107.243 19.3629 97.2155 20.0349C91.0337 20.444 87.6361 17.3759 83.9172 13.0027C85.3386 12.9248 86.3705 12.8079 87.4024 12.8177C101.002 12.8859 114.593 12.8956 128.193 13.0709C134.53 13.1488 138.717 17.3954 138.59 23.2393C138.473 28.8495 134.122 32.9695 128.125 33.1156C125.701 33.174 123.277 33.1253 120.843 33.1253C119.928 30.9144 119.061 28.83 117.971 26.2003Z" fill="#1D3A70"/>
<path d="M82.4277 114.658C78.923 114.745 75.9246 111.814 75.9051 108.278C75.8857 104.743 78.8159 101.782 82.3303 101.801C85.6987 101.821 88.5511 104.606 88.6874 107.996C88.8334 111.492 85.9421 114.57 82.4277 114.658Z" fill="#FF6584"/>
</g>
<defs>
<clipPath id="clip0_1069_2208">
<rect width="143" height="161" fill="white"/>
</clipPath>
</defs>
</svg>
