<?xml version="1.0"?>
<svg width="35" height="33" xmlns="http://www.w3.org/2000/svg" xmlns:svg="http://www.w3.org/2000/svg">
 <g class="layer">
  <title>Layer 1</title>
  <path d="m12.27,5.19c-2.78,2.39 -5.06,4.37 -5.06,4.41c0,0.03 0.28,0.39 0.61,0.78c0.52,0.62 0.62,0.71 0.72,0.63c0.05,-0.04 1.97,-1.67 4.25,-3.61c2.28,-1.95 4.21,-3.57 4.29,-3.61c0.23,-0.12 0.59,-0.09 0.8,0.08c0.11,0.09 2.02,1.71 4.23,3.61c2.23,1.9 4.09,3.49 4.15,3.54c0.09,0.07 0.2,-0.03 0.77,-0.67l0.66,-0.75l-0.22,-0.2c-2.14,-1.87 -10.02,-8.55 -10.07,-8.55c-0.04,0 -2.35,1.96 -5.13,4.34z" fill="#ffffff" id="svg_1" transform="matrix(1 0 0 1 0 0)"/>
  <path d="m13.95,8.27l-3.42,2.91l0,10.52l0,10.52l1.56,-0.01l1.55,-0.02l0.03,-2.67c0.02,-1.47 0.05,-2.67 0.06,-2.68c0,-0.01 0.11,-0.08 0.24,-0.15c0.21,-0.13 0.34,-0.14 3.48,-0.14l3.26,0l0.22,0.2l0.23,0.2l0.02,2.63l0.02,2.64l1.5,0l1.5,0l-0.01,-10.54l-0.03,-10.54l-3.14,-2.69c-1.73,-1.48 -3.26,-2.78 -3.4,-2.89l-0.24,-0.2l-3.43,2.91zm4.33,5.32c1.13,0.35 1.9,1.38 1.9,2.56c0,1.36 -0.91,2.45 -2.26,2.68c-1.28,0.23 -2.62,-0.61 -3,-1.87c-0.41,-1.4 0.35,-2.87 1.73,-3.34c0.43,-0.15 1.19,-0.16 1.63,-0.03zm2.52,8.73c0.56,0.28 0.51,1.07 -0.07,1.3c-0.22,0.08 -6.45,0.08 -6.67,0c-0.57,-0.22 -0.62,-1 -0.08,-1.3c0.19,-0.11 6.62,-0.11 6.82,0z" fill="#ffffff" id="svg_2"/>
  <path d="m16.99,15.02c-0.27,0.12 -0.64,0.54 -0.69,0.78c-0.02,0.11 -0.05,0.22 -0.06,0.27c-0.06,0.16 0.15,0.78 0.31,0.95c0.64,0.68 1.85,0.46 2.12,-0.37c0.29,-0.9 -0.28,-1.73 -1.19,-1.72c-0.16,0 -0.38,0.05 -0.49,0.09z" fill="#ffffff" id="svg_3"/>
  <path d="m0.79,16.16c-0.24,0.06 -0.6,0.37 -0.69,0.61c-0.09,0.19 -0.1,1.42 -0.1,7.34l0,7.11l4.53,-0.01l4.53,-0.02l0.02,-7.54l0.01,-7.53l-4.08,0c-2.25,0.01 -4.15,0.03 -4.22,0.04zm2.31,2.98c0.24,0.12 0.32,0.48 0.32,1.36c0,1.01 -0.09,1.26 -0.49,1.41c-0.23,0.09 -0.28,0.08 -0.52,-0.03c-0.38,-0.19 -0.43,-0.34 -0.43,-1.38c0,-1.03 0.07,-1.26 0.43,-1.41c0.22,-0.1 0.45,-0.08 0.69,0.05zm3.64,0c0.28,0.13 0.34,0.35 0.34,1.38c0,1.08 -0.07,1.27 -0.48,1.41c-0.3,0.1 -0.55,0.02 -0.76,-0.22c-0.16,-0.2 -0.17,-0.24 -0.17,-1.21c0,-1.11 0.04,-1.24 0.44,-1.42c0.21,-0.09 0.36,-0.07 0.63,0.06zm-3.76,5.96c0.36,0.15 0.44,0.41 0.44,1.42c0,1 -0.09,1.26 -0.49,1.41c-0.23,0.09 -0.28,0.08 -0.52,-0.03c-0.38,-0.19 -0.43,-0.34 -0.43,-1.39c0,-1.04 0.05,-1.21 0.41,-1.38c0.29,-0.16 0.29,-0.16 0.59,-0.03zm3.64,-0.02c0.39,0.13 0.46,0.32 0.46,1.4c0,1.04 -0.05,1.24 -0.36,1.4c-0.29,0.16 -0.64,0.1 -0.85,-0.14c-0.2,-0.21 -0.2,-0.22 -0.2,-1.23c0,-0.99 0.01,-1.02 0.17,-1.23c0.1,-0.11 0.25,-0.22 0.33,-0.23c0.08,-0.01 0.17,-0.03 0.19,-0.04c0.02,0 0.14,0.03 0.26,0.07z" fill="#ffffff" id="svg_4" transform="matrix(1 0 0 1 0 0)"/>
  <path d="m24.67,16.2c-0.02,0.05 -0.03,3.67 -0.02,8.04l0.02,7.94l4.67,0.02l4.66,0.01l0,-7.58c0,-8.38 0.03,-7.89 -0.45,-8.27l-0.25,-0.21l-4.3,-0.02c-3.44,-0.01 -4.3,0 -4.33,0.07zm3.21,3.07c0.41,0.18 0.45,0.32 0.45,1.51c0,1.03 -0.01,1.08 -0.17,1.29c-0.21,0.26 -0.46,0.34 -0.76,0.23c-0.37,-0.14 -0.47,-0.37 -0.5,-1.27c-0.01,-0.43 0,-0.92 0.02,-1.1c0.05,-0.35 0.29,-0.67 0.54,-0.73c0.08,-0.01 0.16,-0.03 0.17,-0.04c0.01,0 0.12,0.04 0.25,0.1zm3.71,0.06c0.28,0.14 0.36,0.48 0.36,1.43c0,1.06 -0.08,1.35 -0.44,1.5c-0.31,0.15 -0.61,0.07 -0.83,-0.19c-0.16,-0.21 -0.17,-0.26 -0.17,-1.29c0,-1.18 0.04,-1.32 0.44,-1.51c0.21,-0.1 0.36,-0.07 0.64,0.06zm-3.45,6.55c0.19,0.21 0.19,0.22 0.19,1.31c0,1.09 0,1.09 -0.2,1.31c-0.3,0.37 -0.9,0.3 -1.11,-0.14c-0.14,-0.27 -0.13,-2.1 0.01,-2.38c0.22,-0.44 0.77,-0.49 1.11,-0.11zm3.37,-0.19c0.36,0.16 0.44,0.44 0.44,1.5c0,0.6 -0.03,0.95 -0.1,1.13c-0.2,0.5 -0.86,0.58 -1.2,0.13c-0.12,-0.17 -0.14,-0.3 -0.14,-1.27c0,-1.04 0.01,-1.08 0.17,-1.3c0.16,-0.19 0.24,-0.23 0.54,-0.29c0.03,0 0.16,0.04 0.29,0.1z" fill="#ffffff" id="svg_5"/>
  <path d="m15.11,30.1l0,2.12l2.32,0l2.33,0l0,-2.12l0,-2.12l-2.33,0l-2.32,0l0,2.12z" fill="#ffffff" id="svg_6"/>
 </g>
</svg>